<svg xmlns="http://www.w3.org/2000/svg" width="66" height="64" fill="none"><path fill="#29313C" d="M61.517 12.21v-1.117h1.925V2.577H56.05v8.516h1.117v1.117h-6.904v-1.117h4.67V2.577H44.772v8.516h1.652v1.117H44.77v8.493h-1.117v-.82H29.404v-1.118h14.252V2.577H23.387v16.177h2.745v1.117H19.8v-3.044h2.473V2.577H2.506v16.177h14.308v1.117h-.843v.82h-1.117v-.82H2.518v10.431h12.349v-5.768h1.116v6.886H2.518v19.768h20.836V28.41h-3.27v-1.117h23.57v-2.748h1.117v2.748h1.116v1.117H24.47v22.778h26.908v2.508H41.217v6.829h17.84v-6.829h-3.84v-2.508h8.237V28.41H51.64v-1.117h11.803V16.86h2.506v36.835h-6.346V61.072H40.658V53.696H0V.068h65.949v12.689h-2.506v-.547h-1.926Z"/><path fill="#29313C" fill-rule="evenodd" d="M63.545 28.398H60.253v9.338h.137v.136h3.018v-.136h.137v-9.338Zm-.137 9.338H60.39v-9.2h3.02v9.2Zm0 3.157H60.39v.137h-.136v4.429h3.292V41.03h-.137v-.137Zm0 .137H60.39v4.292h3.02V41.03Zm-1.241-.969c0-.137.057-.25.136-.342a.463.463 0 0 1 .342-.137c.137 0 .25.057.342.137a.464.464 0 0 1 .137.342c0 .137-.057.251-.137.342a.463.463 0 0 1-.342.137.513.513 0 0 1-.342-.137.514.514 0 0 1-.136-.342Zm.136 0c0-.091.046-.182.103-.24a.31.31 0 0 1 .24-.102c.09 0 .181.046.238.103a.31.31 0 0 1 .103.24.356.356 0 0 1-.103.239.31.31 0 0 1-.239.102.355.355 0 0 1-.24-.102.31.31 0 0 1-.102-.24Zm-1.629 0c0-.137.057-.25.137-.342a.464.464 0 0 1 .342-.137c.136 0 .25.057.342.137a.464.464 0 0 1 .136.342c0 .137-.057.251-.136.342a.463.463 0 0 1-.342.137.513.513 0 0 1-.342-.137.514.514 0 0 1-.137-.342Zm.137 0c0-.091.046-.182.103-.24a.31.31 0 0 1 .239-.102c.09 0 .182.046.239.103a.31.31 0 0 1 .102.24.355.355 0 0 1-.102.239.31.31 0 0 1-.24.102.355.355 0 0 1-.238-.102.31.31 0 0 1-.103-.24Zm1.356-1.368c0-.137.057-.25.136-.342a.463.463 0 0 1 .342-.137c.137 0 .25.057.342.137a.464.464 0 0 1 .137.342c0 .137-.057.25-.137.342a.463.463 0 0 1-.342.137.513.513 0 0 1-.342-.137.514.514 0 0 1-.136-.342Zm.136 0c0-.091.046-.182.103-.24a.31.31 0 0 1 .24-.102c.09 0 .181.046.238.103a.31.31 0 0 1 .103.24.356.356 0 0 1-.103.238.31.31 0 0 1-.239.103.355.355 0 0 1-.24-.102.31.31 0 0 1-.102-.24Zm-1.629 0c0-.137.057-.25.137-.342a.464.464 0 0 1 .342-.137c.136 0 .25.057.342.137a.464.464 0 0 1 .136.342c0 .137-.057.25-.136.342a.463.463 0 0 1-.342.137.513.513 0 0 1-.342-.137.514.514 0 0 1-.137-.342Zm.137 0c0-.091.046-.182.103-.24a.31.31 0 0 1 .239-.102c.09 0 .182.046.239.103a.31.31 0 0 1 .102.24.355.355 0 0 1-.102.238.31.31 0 0 1-.24.103.355.355 0 0 1-.238-.102.31.31 0 0 1-.103-.24ZM54.935 6.122h-2.563c-.273 0-.535-.114-.717-.297a1.007 1.007 0 0 1-.297-.718c0-.274.114-.536.297-.718.182-.183.432-.297.717-.297h2.563V6.122Zm-3.19-1.653a.905.905 0 0 0 0 1.276c.16.16.388.263.639.263h2.449V4.206h-2.45a.904.904 0 0 0-.637.263Zm2.063 1.539h.114V4.206h-.114v1.802ZM54.935 6.902h-.934c-.467 0-.888.183-1.196.49a1.61 1.61 0 0 0-.501 1.163c0 .456.194.867.501 1.163.308.296.73.479 1.196.479h.934V6.902Zm-.934 3.158c-.432 0-.82-.17-1.105-.444a1.479 1.479 0 0 1-.455-1.084c0-.421.17-.798.455-1.071a1.587 1.587 0 0 1 1.105-.445h.81v3.044H54Zm.217-.216h-.262c-.353 0-.672-.137-.912-.365a1.243 1.243 0 0 1-.375-.878V8.51c0-.342.148-.65.375-.878.228-.228.547-.365.912-.365h.262v2.577ZM52.805 8.51c0-.308.137-.582.342-.787.205-.205.49-.33.809-.33h.125v2.325h-.125c-.308 0-.604-.125-.809-.33a1.05 1.05 0 0 1-.342-.787V8.51Zm1.063.058c0 .114-.08.195-.189.195a.2.2 0 0 1-.198-.195c0-.102.09-.186.198-.186.11 0 .189.073.189.186Zm-.189.106c-.061 0-.107-.04-.107-.106 0-.065.058-.104.107-.104.05 0 .108.037.108.104s-.046.106-.108.106ZM7.735 30.314v-2.565c0-.274.114-.536.296-.718.183-.183.433-.297.718-.297a1.007 1.007 0 0 1 1.014 1.015v2.565H7.735Zm1.652-3.192a.903.903 0 0 0-1.538.638v1.425h1.8V27.76a.905.905 0 0 0-.262-.638Zm.262 2.177h-1.8v.912h1.8V29.3ZM14 30.314v-.935c0-.468-.181-.89-.489-1.197a1.609 1.609 0 0 0-1.162-.502c-.456 0-.866.194-1.162.502-.296.308-.478.73-.478 1.197v.935H14Zm-3.155-.935c0-.433.171-.82.445-1.106.273-.285.649-.456 1.082-.456.421 0 .797.171 1.07.456.274.285.445.673.445 1.106v.81h-3.042v-.81Zm.217.217v-.263c0-.353.136-.672.364-.912.228-.228.536-.376.877-.376h.092c.341 0 .649.148.877.376.228.228.364.547.364.912v.263h-2.574Zm1.333-1.414c.307 0 .58.137.786.342.205.205.33.49.33.81v.125h-2.324v-.126c0-.307.125-.604.33-.81.194-.216.479-.341.787-.341h.09Zm-.059 1.063c-.113 0-.194-.08-.194-.188a.2.2 0 0 1 .194-.2c.103 0 .187.09.187.2 0 .109-.073.188-.187.188Zm-.105-.188c0-.062.04-.108.105-.108s.104.059.104.108-.037.107-.104.107-.105-.046-.105-.107ZM5.81 19.882H2.518V26.974H5.81v-7.092Zm-.103.092v6.908H2.61v-6.908h3.098Zm-2.836 5.438v-3.945c0-.353.137-.638.353-.844.24-.216.558-.33.923-.33.364 0 .695.114.923.33.216.206.353.49.353.844v3.945c0 .353-.137.638-.353.843-.24.217-.559.33-.923.33-.365 0-.695-.113-.923-.33a1.132 1.132 0 0 1-.353-.843Zm2.472 0c0 .33-.125.592-.33.775-.217.194-.524.296-.866.308-.342 0-.65-.114-.866-.308a1.02 1.02 0 0 1-.33-.775v-3.945c0-.33.125-.593.33-.775.216-.205.524-.308.866-.308.342 0 .65.114.866.308.205.194.33.444.33.775v3.945Zm-1.203.449c-.113 0-.194-.08-.194-.189 0-.108.092-.199.194-.199.103 0 .187.09.187.199 0 .109-.073.189-.187.189Zm-.105-.189c0-.062.04-.108.105-.108s.104.06.104.108c0 .049-.037.108-.104.108s-.105-.047-.105-.108Z" clip-rule="evenodd"/><path fill="#fff" d="M46.48 51.245h4.83v2.394h-4.83v-2.394Z"/><path fill="#171924" fill-rule="evenodd" d="M46.411 53.696v-2.508h4.944v2.508h-4.944Zm.114-.114h4.717v-2.28h-4.717v2.28Z" clip-rule="evenodd"/><path fill="#171924" d="M46.423 51.94h4.944v.137h-4.944z"/><path fill="#fff" d="M26.726 51.245h8.122v2.394h-8.122v-2.394Z"/><path fill="#171924" fill-rule="evenodd" d="M26.657 53.696v-2.508h8.237v2.508h-8.236Zm.114-.114h8.009v-2.28h-8.009v2.28Z" clip-rule="evenodd"/><path fill="#171924" d="M26.669 51.94h8.236v.137h-8.236z"/><path fill="#fff" d="M7.234 51.245h8.123v2.394H7.234v-2.394Z"/><path fill="#171924" fill-rule="evenodd" d="M7.177 53.696v-2.508h8.237v2.508H7.177Zm.114-.114H15.3v-2.28H7.29v2.28Z" clip-rule="evenodd"/><path fill="#171924" d="M7.177 51.94h8.236v.137H7.177z"/><path fill="#fff" d="M7.234.125h8.123V2.52H7.234V.125Z"/><path fill="#171924" fill-rule="evenodd" d="M7.177 2.577V.068h8.237v2.509H7.177Zm.114-.114H15.3V.183H7.29v2.28Z" clip-rule="evenodd"/><path fill="#171924" d="M7.177 1.687h8.236v.137H7.177z"/><path fill="#fff" d="M26.726.125h8.122V2.52h-8.122V.125Z"/><path fill="#171924" fill-rule="evenodd" d="M26.657 2.577V.068h8.237v2.509h-8.236Zm.114-.114h8.009V.183h-8.009v2.28Z" clip-rule="evenodd"/><path fill="#171924" d="M26.669 1.687h8.236v.137h-8.236z"/><path fill="#fff" d="M47.3.125h5.924V2.52H47.3V.125Z"/><path fill="#171924" fill-rule="evenodd" d="M47.243 2.577V.068h6.038v2.509h-6.038Zm.114-.114h5.81V.183h-5.81v2.28Z" clip-rule="evenodd"/><path fill="#171924" d="M47.243 1.687h6.038v.137h-6.038z"/><path fill="#0B1739" fill-opacity=".2" d="M8.271 58.416c.953 1.45.4 3.33-1.226 4.17-1.621.852-3.721.356-4.662-1.1-.956-1.458-.4-3.325 1.23-4.167 1.621-.852 3.72-.358 4.658 1.096Z" opacity=".2"/><path fill="red" fill-rule="evenodd" d="m5.698 60.614-2.754.446 1.82-1.876 2.746-.456-1.812 1.886Zm-.725-1.106-1.316 1.206 1.846-.42-.53-.786Z" clip-rule="evenodd"/><path fill="#0B1739" fill-rule="evenodd" d="m5.698 60.614-2.754.446 1.82-1.876 2.746-.456-1.812 1.886Zm-.725-1.106-1.316 1.206 1.846-.42-.53-.786Z" clip-rule="evenodd"/><path fill="red" fill-rule="evenodd" d="M.722 63.041a.843.843 0 0 1-.37-.08.633.633 0 0 1-.258-.218.553.553 0 0 1-.094-.315c0-.117.032-.222.095-.315a.64.64 0 0 1 .26-.22.842.842 0 0 1 .369-.078.86.86 0 0 1 .303.05.619.619 0 0 1 .231.149l-.162.134a.503.503 0 0 0-.36-.14.56.56 0 0 0-.25.054.418.418 0 0 0-.171.15.39.39 0 0 0-.062.216c0 .08.02.153.062.216a.417.417 0 0 0 .171.15.56.56 0 0 0 .25.053.5.5 0 0 0 .36-.142l.162.137a.62.62 0 0 1-.232.148.868.868 0 0 1-.304.051Z" clip-rule="evenodd"/><path fill="#0B1739" fill-rule="evenodd" d="M.722 63.041a.843.843 0 0 1-.37-.08.633.633 0 0 1-.258-.218.553.553 0 0 1-.094-.315c0-.117.032-.222.095-.315a.64.64 0 0 1 .26-.22.842.842 0 0 1 .369-.078.86.86 0 0 1 .303.05.619.619 0 0 1 .231.149l-.162.134a.503.503 0 0 0-.36-.14.56.56 0 0 0-.25.054.418.418 0 0 0-.171.15.39.39 0 0 0-.062.216c0 .08.02.153.062.216a.417.417 0 0 0 .171.15.56.56 0 0 0 .25.053.5.5 0 0 0 .36-.142l.162.137a.62.62 0 0 1-.232.148.868.868 0 0 1-.304.051Z" clip-rule="evenodd"/><path fill="red" fill-rule="evenodd" d="M10.43 56.903c.133 0 .252.027.358.08a.62.62 0 0 1 .25.218c.06.093.09.199.09.316 0 .116-.03.221-.09.315a.62.62 0 0 1-.25.219.792.792 0 0 1-.358.079.806.806 0 0 1-.33-.067.64.64 0 0 1-.246-.185.562.562 0 0 1-.119-.271h-.212v.506h-.247V56.92h.247v.49h.216a.563.563 0 0 1 .123-.264.64.64 0 0 1 .243-.179.81.81 0 0 1 .325-.064Zm0 1.033c.084 0 .16-.018.228-.053a.395.395 0 0 0 .218-.367.396.396 0 0 0-.218-.366.489.489 0 0 0-.228-.053.483.483 0 0 0-.227.053.404.404 0 0 0-.219.367.407.407 0 0 0 .22.366.483.483 0 0 0 .226.053Z" clip-rule="evenodd"/><path fill="#0B1739" fill-rule="evenodd" d="M10.43 56.903c.133 0 .252.027.358.08a.62.62 0 0 1 .25.218c.06.093.09.199.09.316 0 .116-.03.221-.09.315a.62.62 0 0 1-.25.219.792.792 0 0 1-.358.079.806.806 0 0 1-.33-.067.64.64 0 0 1-.246-.185.562.562 0 0 1-.119-.271h-.212v.506h-.247V56.92h.247v.49h.216a.563.563 0 0 1 .123-.264.64.64 0 0 1 .243-.179.81.81 0 0 1 .325-.064Zm0 1.033c.084 0 .16-.018.228-.053a.395.395 0 0 0 .218-.367.396.396 0 0 0-.218-.366.489.489 0 0 0-.228-.053.483.483 0 0 0-.227.053.404.404 0 0 0-.219.367.407.407 0 0 0 .22.366.483.483 0 0 0 .226.053Z" clip-rule="evenodd"/><path fill="#29313C" d="M53.312 57.814h.903v.173l-.508 1.233h-.205l.513-1.233h-.703v-.173Zm1.129 1.195h.204l-.158.512h-.143l.097-.512Zm.975.227a.536.536 0 0 1-.2-.036.368.368 0 0 1-.151-.115.583.583 0 0 1-.097-.205 1.188 1.188 0 0 1-.034-.305v-.116c0-.118.012-.218.034-.301a.562.562 0 0 1 .097-.205.377.377 0 0 1 .152-.117.505.505 0 0 1 .2-.038.52.52 0 0 1 .198.036.36.36 0 0 1 .152.117c.042.052.074.12.097.205.023.083.034.184.034.303v.116c0 .118-.011.22-.034.303a.563.563 0 0 1-.098.205.382.382 0 0 1-.153.117.515.515 0 0 1-.197.036Zm0-.18a.302.302 0 0 0 .119-.023.211.211 0 0 0 .09-.078.455.455 0 0 0 .056-.149c.014-.061.02-.138.02-.23v-.117c0-.093-.006-.169-.02-.23a.423.423 0 0 0-.058-.148.194.194 0 0 0-.09-.078.274.274 0 0 0-.117-.024.293.293 0 0 0-.12.024.196.196 0 0 0-.089.078.43.43 0 0 0-.056.147c-.013.061-.02.138-.02.23v.117c0 .093.007.17.02.231.013.06.032.11.056.147a.223.223 0 0 0 .09.08.312.312 0 0 0 .12.022Zm.681-1.039.293-.203h.189v1.406h-.189v-1.197l-.293.199v-.205Z"/><path fill="red" d="M34.739 41.692v2.81h-.398v-2.46h-.634v-.35h1.032Zm1.542 0v2.81h-.398v-2.46h-.635v-.35h1.033Zm2.389 1.337c.16.062.283.15.37.265a.673.673 0 0 1 .128.414.733.733 0 0 1-.137.442.867.867 0 0 1-.39.285c-.168.067-.366.1-.594.1-.225 0-.422-.033-.59-.1a.87.87 0 0 1-.386-.285.734.734 0 0 1-.136-.442c0-.16.041-.299.124-.414a.805.805 0 0 1 .37-.265.703.703 0 0 1-.294-.245.642.642 0 0 1-.1-.361c0-.156.042-.29.125-.406a.81.81 0 0 1 .357-.265c.153-.062.33-.092.53-.092.204 0 .382.03.534.092.155.061.275.15.358.265a.66.66 0 0 1 .128.406.637.637 0 0 1-.104.361.704.704 0 0 1-.293.245Zm-.623-1.044c-.19 0-.34.041-.45.124a.386.386 0 0 0-.164.33c0 .139.053.249.16.329.11.08.261.12.454.12.196 0 .348-.04.458-.12a.383.383 0 0 0 .169-.33.38.38 0 0 0-.173-.329c-.112-.083-.264-.124-.454-.124Zm0 2.225c.222 0 .398-.046.526-.137a.444.444 0 0 0 .193-.377.42.42 0 0 0-.193-.366c-.128-.09-.304-.136-.526-.136-.222 0-.396.045-.522.136a.423.423 0 0 0-.189.366c0 .158.063.284.189.377.126.091.3.137.522.137Zm1.852-.233c.075 0 .136.027.184.08.051.051.077.115.077.193 0 .04-.005.079-.016.116a1.7 1.7 0 0 1-.052.173l-.19.558h-.252l.148-.598a.267.267 0 0 1-.124-.093.281.281 0 0 1-.044-.156c0-.08.025-.146.076-.197a.262.262 0 0 1 .193-.076Zm1.516-2.285v2.81h-.397v-2.46h-.635v-.35h1.032Zm1.542 0v2.81h-.398v-2.46h-.634v-.35h1.032Z"/><path fill="#0B1739" d="M34.739 41.692v2.81h-.398v-2.46h-.634v-.35h1.032Zm1.542 0v2.81h-.398v-2.46h-.635v-.35h1.033Zm2.389 1.337c.16.062.283.15.37.265a.673.673 0 0 1 .128.414.733.733 0 0 1-.137.442.867.867 0 0 1-.39.285c-.168.067-.366.1-.594.1-.225 0-.422-.033-.59-.1a.87.87 0 0 1-.386-.285.734.734 0 0 1-.136-.442c0-.16.041-.299.124-.414a.805.805 0 0 1 .37-.265.703.703 0 0 1-.294-.245.642.642 0 0 1-.1-.361c0-.156.042-.29.125-.406a.81.81 0 0 1 .357-.265c.153-.062.33-.092.53-.092.204 0 .382.03.534.092.155.061.275.15.358.265a.66.66 0 0 1 .128.406.637.637 0 0 1-.104.361.704.704 0 0 1-.293.245Zm-.623-1.044c-.19 0-.34.041-.45.124a.386.386 0 0 0-.164.33c0 .139.053.249.16.329.11.08.261.12.454.12.196 0 .348-.04.458-.12a.383.383 0 0 0 .169-.33.38.38 0 0 0-.173-.329c-.112-.083-.264-.124-.454-.124Zm0 2.225c.222 0 .398-.046.526-.137a.444.444 0 0 0 .193-.377.42.42 0 0 0-.193-.366c-.128-.09-.304-.136-.526-.136-.222 0-.396.045-.522.136a.423.423 0 0 0-.189.366c0 .158.063.284.189.377.126.091.3.137.522.137Zm1.852-.233c.075 0 .136.027.184.08.051.051.077.115.077.193 0 .04-.005.079-.016.116a1.7 1.7 0 0 1-.052.173l-.19.558h-.252l.148-.598a.267.267 0 0 1-.124-.093.281.281 0 0 1-.044-.156c0-.08.025-.146.076-.197a.262.262 0 0 1 .193-.076Zm1.516-2.285v2.81h-.397v-2.46h-.635v-.35h1.032Zm1.542 0v2.81h-.398v-2.46h-.634v-.35h1.032Z"/><path fill="red" d="M35.43 40.044c-.394 0-.7-.105-.918-.316-.218-.214-.33-.517-.336-.909h.632c.007.231.062.4.166.507.104.104.256.156.457.156.207 0 .363-.047.467-.14a.504.504 0 0 0 .155-.387.466.466 0 0 0-.15-.357c-.097-.093-.243-.14-.437-.14h-.462v-.532h.462c.16 0 .286-.042.376-.126a.424.424 0 0 0 .136-.326.444.444 0 0 0-.14-.341c-.091-.088-.227-.131-.407-.131-.335 0-.517.187-.547.562h-.633c.007-.351.112-.626.316-.823.208-.2.496-.301.864-.301.194 0 .364.025.512.075a.99.99 0 0 1 .366.2.82.82 0 0 1 .226.317c.05.12.075.254.075.402 0 .16-.035.306-.105.436a.784.784 0 0 1-.326.317.867.867 0 0 1 .507.813c0 .154-.027.296-.08.427a.9.9 0 0 1-.242.331c-.103.09-.234.16-.391.21-.154.051-.335.076-.542.076Zm2.642-1.094h-.251v1.049h-.583v-2.51h.583v.949h.25l.603-.95h.673l-.793 1.186.893 1.325h-.703l-.672-1.05Z"/><path fill="#0B1739" d="M35.43 40.044c-.394 0-.7-.105-.918-.316-.218-.214-.33-.517-.336-.909h.632c.007.231.062.4.166.507.104.104.256.156.457.156.207 0 .363-.047.467-.14a.504.504 0 0 0 .155-.387.466.466 0 0 0-.15-.357c-.097-.093-.243-.14-.437-.14h-.462v-.532h.462c.16 0 .286-.042.376-.126a.424.424 0 0 0 .136-.326.444.444 0 0 0-.14-.341c-.091-.088-.227-.131-.407-.131-.335 0-.517.187-.547.562h-.633c.007-.351.112-.626.316-.823.208-.2.496-.301.864-.301.194 0 .364.025.512.075a.99.99 0 0 1 .366.2.82.82 0 0 1 .226.317c.05.12.075.254.075.402 0 .16-.035.306-.105.436a.784.784 0 0 1-.326.317.867.867 0 0 1 .507.813c0 .154-.027.296-.08.427a.9.9 0 0 1-.242.331c-.103.09-.234.16-.391.21-.154.051-.335.076-.542.076Zm2.642-1.094h-.251v1.049h-.583v-2.51h.583v.949h.25l.603-.95h.673l-.793 1.186.893 1.325h-.703l-.672-1.05Z"/><path fill="#29313C" fill-rule="evenodd" d="M63.482 25.067H51.687v2.254h11.795v-2.254Zm-11.663 2.122v-1.99h11.53v1.99H51.82Z" clip-rule="evenodd"/><path fill="#29313C" d="M52.88 26.26v-.132h9.542v.132H52.88Z"/><path fill="#29313C" d="M53.277 25.597h.133v1.326h-.133v-1.326ZM53.807 25.597h.133v1.326h-.133v-1.326ZM54.47 25.597h.132v1.326h-.132v-1.326ZM56.06 25.597h.133v1.326h-.133v-1.326ZM56.988 25.597h.132v1.326h-.132v-1.326ZM59.904 25.597h.132v1.326h-.132v-1.326ZM57.518 25.597h.133v1.326h-.133v-1.326ZM60.434 25.597h.132v1.326h-.132v-1.326ZM58.18 25.597h.133v1.326h-.132v-1.326ZM61.096 25.597h.133v1.326h-.133v-1.326ZM61.759 25.597h.133v1.326h-.133v-1.326ZM55.184 25.683l.128-.034.35 1.322-.128.033-.35-1.321ZM59.373 25.683l-.128-.034-.35 1.322.128.033.35-1.321Z"/><path fill="#29313C" fill-rule="evenodd" d="M21.275 28.228V40.03h2.253V28.229h-2.253Zm2.12.132V39.9h-1.987V28.36h1.987Z" clip-rule="evenodd"/><path fill="#29313C" d="M22.468 38.838h-.133v-9.55h.133v9.55Z"/><path fill="#29313C" d="M21.805 38.44v-.133h1.325v.133h-1.325ZM21.805 37.91v-.133h1.325v.133h-1.325ZM21.805 37.246v-.132h1.325v.132h-1.325ZM21.805 35.655v-.133h1.325v.133h-1.325ZM21.805 34.726v-.132h1.325v.132h-1.325ZM21.805 31.809v-.133h1.325v.133h-1.325ZM21.805 34.196v-.133h1.325v.133h-1.325ZM21.805 31.278v-.133h1.325v.133h-1.325ZM21.805 33.533V33.4h1.325v.133h-1.325ZM21.805 30.615v-.133h1.325v.133h-1.325ZM21.805 29.952v-.133h1.325v.133h-1.325ZM21.89 36.532l-.033-.129 1.32-.35.034.129-1.32.35ZM23.177 32.818l.034-.128-1.32-.35-.034.128 1.32.35Z"/><path fill="#29313C" fill-rule="evenodd" d="M23.325 11.671v7.162h2.253v-7.162h-2.253Zm2.12 7.03h-1.987v-6.897h1.988V18.7Z" clip-rule="evenodd"/><path fill="#29313C" d="M24.518 18.303h-.133v-5.836h.133v5.836Z"/><path fill="#29313C" d="M23.855 17.905v-.133h1.326v.133h-1.326ZM23.855 17.374v-.133h1.326v.133h-1.326ZM23.855 16.711v-.133h1.326v.133h-1.326ZM23.855 15.12v-.133h1.326v.133h-1.326ZM23.855 14.191v-.133h1.326v.133h-1.326ZM23.855 13.66v-.132h1.326v.133h-1.326ZM23.855 12.998v-.133h1.326v.133h-1.326ZM23.94 15.996l-.033-.128 1.32-.35.035.128-1.321.35Z"/><path fill="#29313C" fill-rule="evenodd" d="M2.518 18.833h7.157v-2.255H2.518v2.255Zm7.024-2.122v1.99H2.651v-1.99h6.891Z" clip-rule="evenodd"/><path fill="#29313C" d="M9.145 17.64v.132H3.313v-.133h5.832Z"/><path fill="#29313C" d="M8.747 18.303h-.133v-1.327h.133v1.327ZM8.217 18.303h-.133v-1.327h.133v1.327ZM7.554 18.303h-.132v-1.327h.132v1.327ZM5.964 18.303H5.83v-1.327h.133v1.327ZM5.036 18.303h-.132v-1.327h.132v1.327ZM4.506 18.303h-.133v-1.327h.133v1.327ZM3.843 18.303h-.132v-1.327h.132v1.327ZM6.84 18.217l-.128.034-.35-1.322.128-.034.35 1.322Z"/><path fill="#29313C" fill-rule="evenodd" d="M55.928 4.775h7.687V2.52h-7.687v2.255Zm7.554-2.122v1.989H56.06v-1.99h7.422Z" clip-rule="evenodd"/><path fill="#29313C" d="M62.554 3.58v.134h-5.831V3.58h5.831Z"/><path fill="#29313C" d="M62.157 4.244h-.133V2.918h.133v1.326ZM61.627 4.244h-.133V2.918h.133v1.326ZM60.964 4.244h-.133V2.918h.133v1.326ZM59.373 4.244h-.132V2.918h.133v1.326ZM58.446 4.244h-.133V2.918h.133v1.326ZM57.916 4.244h-.133V2.918h.133v1.326ZM57.253 4.244h-.133V2.918h.133v1.326ZM60.25 4.159l-.128.034-.35-1.322.128-.034.35 1.322Z"/><path fill="#29313C" fill-rule="evenodd" d="M63.75 11.089V4.642h-2.253v6.447h2.253Zm-2.12-.133V4.775h1.988v6.181H61.63Z" clip-rule="evenodd"/><path fill="#29313C" d="M62.557 5.52h.133v4.913h-.133V5.52Z"/><path fill="#29313C" d="M63.22 5.854v.133h-1.325v-.133h1.325ZM63.22 6.299v.132h-1.325V6.3h1.325ZM63.22 6.854v.133h-1.325v-.133h1.325ZM63.22 8.188v.133h-1.325v-.133h1.325ZM63.22 8.966V9.1h-1.325v-.133h1.325ZM63.22 9.41v.134h-1.325V9.41h1.325ZM63.22 9.967v.132h-1.325v-.132h1.325ZM63.138 7.453l.029.13-1.323.293-.028-.13 1.322-.293Z"/><path fill="#29313C" fill-rule="evenodd" d="M55.795 12.202h-3.578v1.857h3.578v-1.857Zm-3.446 1.724v-1.592h3.314v1.592h-3.314ZM44.663 28.913h-9.807v1.724h9.807v-1.724Zm-.133 1.591h-9.542v-1.459h9.542v1.46Z" clip-rule="evenodd"/><path fill="#29313C" fill-rule="evenodd" d="M43.735 29.443h-8.084v.663h8.084v-.663Zm-.133.53h-7.819v-.397h7.82v.398ZM31.176 29.448l-3.27 1.457 1.24 2.786 3.27-1.457-1.24-2.786Zm1.064 2.719-3.027 1.349-1.132-2.544 3.028-1.35 1.131 2.545Z" clip-rule="evenodd"/><path fill="#29313C" fill-rule="evenodd" d="m31.176 29.448-3.27 1.457 1.24 2.786 3.27-1.457-1.24-2.786Zm1.064 2.719-3.027 1.349-1.132-2.544 3.028-1.35 1.131 2.545Z" clip-rule="evenodd"/><path fill="#29313C" fill-rule="evenodd" d="m31.781 29.178-4.48 1.996 1.24 2.787 4.48-1.997-1.24-2.786Zm1.065 2.719-4.238 1.889-1.132-2.544 4.238-1.889 1.132 2.544Z" clip-rule="evenodd"/><path fill="#29313C" fill-rule="evenodd" d="m31.176 29.448-3.27 1.456.432.97 3.269-1.457-.431-.97Zm.256.902-3.027 1.348-.323-.726 3.026-1.35.324.728ZM35.518 50.133h3.578v-3.05h-3.578v3.05Zm3.446-2.918V50H35.65v-2.785h3.313Z" clip-rule="evenodd"/><path fill="#29313C" fill-rule="evenodd" d="M35.518 50.133h3.578v-3.05h-3.578v3.05Zm3.446-2.918V50H35.65v-2.785h3.313Z" clip-rule="evenodd"/><path fill="#29313C" fill-rule="evenodd" d="M34.855 50.133h4.904v-3.05h-4.904v3.05Zm4.772-2.918V50h-4.639v-2.785h4.639Z" clip-rule="evenodd"/><path fill="#29313C" fill-rule="evenodd" d="M35.518 50.133h3.578v-1.06h-3.578v1.06Zm3.446-.928V50H35.65v-.796h3.313ZM26.241 43.502v3.58h3.048v-3.58h-3.048Zm2.916 3.448h-2.784v-3.316h2.784v3.316Z" clip-rule="evenodd"/><path fill="#29313C" fill-rule="evenodd" d="M26.241 40.053v3.581h3.048v-3.58h-3.048Zm2.916 3.449h-2.784v-3.316h2.784v3.316Z" clip-rule="evenodd"/><path fill="#29313C" fill-rule="evenodd" d="M26.241 36.605v3.581h3.048v-3.58h-3.048Zm2.916 3.448h-2.784v-3.315h2.784v3.315Z" clip-rule="evenodd"/><path fill="#29313C" fill-rule="evenodd" d="M26.241 36.605v10.478h3.048V36.605h-3.048Zm2.916 10.345h-2.784V36.738h2.784V46.95Z" clip-rule="evenodd"/><path fill="#29313C" fill-rule="evenodd" d="M26.241 35.942v11.804h3.048V35.942h-3.048Zm2.916 11.671h-2.784V36.075h2.784v11.538Z" clip-rule="evenodd"/><path fill="#29313C" fill-rule="evenodd" d="M26.241 43.502v3.58h1.06v-3.58h-1.06Zm.928 3.448h-.796v-3.316h.796v3.316Z" clip-rule="evenodd"/><path fill="#29313C" fill-rule="evenodd" d="M26.241 40.053v3.581h1.06v-3.58h-1.06Zm.928 3.449h-.796v-3.316h.796v3.316Z" clip-rule="evenodd"/><path fill="#29313C" fill-rule="evenodd" d="M26.241 36.605v3.581h1.06v-3.58h-1.06Zm.928 3.448h-.796v-3.315h.796v3.315ZM48.705 44.099a3.05 3.05 0 1 0 3.048-3.05 3.05 3.05 0 0 0-3.048 3.05Zm5.964 0a2.917 2.917 0 1 1-2.916-2.918 2.917 2.917 0 0 1 2.916 2.918ZM56.091 40.387l-1.525-1.474-1.289 1.336 1.526 1.474 1.288-1.336ZM54.8 41.535l-1.334-1.29 1.104-1.144 1.335 1.29-1.105 1.145ZM56.264 47.13l-1.525 1.473-1.197-1.24 1.43-1.382.096-.092 1.196 1.24Zm-1.292-1.149.188.003-.096.093-.092-.096Zm-1.242 1.385 1.334-1.29 1.013 1.05-1.335 1.29-1.012-1.05Z" clip-rule="evenodd"/><path fill="#29313C" fill-rule="evenodd" d="M56.988 44.96V42.84h-1.723v2.122h1.723Zm-1.59-1.989h1.457v1.857h-1.457v-1.857ZM46.12 45.516l.93 1.907 1.68-.82-.928-1.908-1.681.821Zm1.62-.643.814 1.668-1.443.705-.813-1.669 1.442-.704ZM26.506 7.825v2.122h1.87V7.825h-1.87Zm1.738.133v1.856h-1.605V7.958h1.605ZM26.506 4.111v2.122h1.87V4.111h-1.87Zm1.738.133v1.857h-1.605V4.244h1.605ZM49.996 49.182l2.1.295.221-1.576-2.1-.295-.22 1.576Zm2.172-1.168-.185 1.313-1.837-.258.184-1.313 1.838.258ZM5.699 49.072h-3.18v2.255h3.18v-2.255ZM2.65 51.194v-1.99h2.915v1.99H2.651ZM41.482 7.692v5.969h2.253V7.692h-2.253Zm2.12 5.836h-1.987V7.825h1.987v5.703ZM5.699 2.52h-3.18v2.255h3.18V2.52ZM2.65 4.642v-1.99h2.915v1.99H2.651ZM23.59 49.072H16.7v2.255h6.891v-2.255Zm-6.759 2.122v-1.99h6.627v1.99H16.83ZM22.663 2.52h-5.964v2.255h5.964V2.52ZM16.83 4.642v-1.99h5.7v1.99h-5.7ZM15.241 40.982H7.289v10.345h7.952V40.982Zm-7.82 10.212v-10.08h7.687v10.08H7.422Z" clip-rule="evenodd"/><path fill="#29313C" fill-rule="evenodd" d="M10.867 48.94H7.82v1.989h3.048v-1.99Zm-.132 1.856H7.952v-1.724h2.783v1.724ZM14.578 48.94H11.53v1.989h3.048v-1.99Zm-2.915 1.856v-1.724h2.783v1.724h-2.783ZM15.241 40.982H7.289v7.294h7.952v-7.294Zm-7.82 7.162v-7.03h7.687v7.03H7.422Z" clip-rule="evenodd"/><path fill="#29313C" fill-rule="evenodd" d="M15.241 40.982H7.289v5.968h7.952v-5.968Zm-7.82 5.835v-5.703h7.687v5.703H7.422ZM15.241 12.865H7.289V2.52h7.952v10.345ZM7.421 2.653v10.08h7.687V2.652H7.422Z" clip-rule="evenodd"/><path fill="#29313C" fill-rule="evenodd" d="M10.867 4.907H7.82v-1.99h3.048v1.99ZM7.952 3.05v1.725h2.783V3.05H7.952ZM14.578 4.907H11.53v-1.99h3.048v1.99ZM11.663 3.05v1.725h2.783V3.05h-2.783ZM15.241 12.865H7.289V5.57h7.952v7.295Zm-7.82-7.162v7.03h7.687v-7.03H7.422Z" clip-rule="evenodd"/><path fill="#29313C" fill-rule="evenodd" d="M15.241 12.865H7.289V6.897h7.952v5.968Zm-7.82-5.836v5.703h7.687V7.03H7.422ZM33.398 18.833V14.59h10.337v4.244H33.398Zm10.204-4.111H33.53V18.7h10.072v-3.98Z" clip-rule="evenodd"/><path fill="#29313C" fill-rule="evenodd" d="M41.35 18.17v-3.05h1.987v3.05H41.35Zm1.855-2.918h-1.723v2.785h1.723v-2.785ZM33.398 18.833V14.59h7.289v4.244h-7.29Zm7.156-4.111H33.53V18.7h7.024v-3.98Z" clip-rule="evenodd"/><path fill="#29313C" fill-rule="evenodd" d="M33.398 18.833V14.59h5.963v4.244h-5.963Zm5.83-4.111H33.53V18.7h5.699v-3.98ZM33.398 6.764V2.52h10.337v4.244H33.398Zm10.204-4.111H33.53V6.63h10.072V2.653Z" clip-rule="evenodd"/><path fill="#29313C" fill-rule="evenodd" d="M41.35 6.1V3.05h1.987V6.1H41.35Zm1.855-2.917h-1.723v2.785h1.723V3.183ZM33.398 6.764V2.52h7.289v4.244h-7.29Zm7.156-4.111H33.53V6.63h7.024V2.653Z" clip-rule="evenodd"/><path fill="#29313C" fill-rule="evenodd" d="M33.398 6.764V2.52h5.963v4.244h-5.963Zm5.83-4.111H33.53V6.63h5.699V2.653ZM26.639 2.52h-3.314v8.62h3.314V2.52Zm-3.181 8.488V2.653h3.048v8.355h-3.048ZM7.884 34.475h-2.12v1.871h2.12v-1.871Zm-.133 1.739H5.896v-1.606H7.75v1.606Z" clip-rule="evenodd"/><path fill="#29313C" fill-rule="evenodd" d="M11.072 34.615v-3.316H2.457v3.316h8.615Zm-8.482-.133v-3.05h8.35v3.05H2.59ZM64.012 28.382H51.687v3.183h12.325v-3.183Zm-12.193 3.05v-2.917h12.06v2.918H51.82Z" clip-rule="evenodd"/></svg>